<?xml version="1.0" encoding="UTF-8"?>
<svg id="Layer_1" xmlns="http://www.w3.org/2000/svg" version="1.1" xmlns:xlink="http://www.w3.org/1999/xlink" viewBox="0 0 500 120">
  <!-- Generator: Adobe Illustrator 29.1.0, SVG Export Plug-In . SVG Version: 2.1.0 Build 142)  -->
  <defs>
    <style>
      .st0 {
        fill: #0d47a1;
      }

      .st1 {
        fill: url(#linear-gradient2);
      }

      .st2 {
        fill: url(#linear-gradient1);
      }

      .st3 {
        fill: #1c2833;
      }

      .st3, .st4, .st5 {
        isolation: isolate;
      }

      .st3, .st5 {
        font-family: SegoeUIBlack, 'Segoe UI';
        font-size: 76px;
      }

      .st5 {
        fill: #1976d2;
      }

      .st6 {
        fill: url(#linear-gradient);
      }
    </style>
    <linearGradient id="linear-gradient" x1="-344.9" y1="647.8" x2="-343.9" y2="646.8" gradientTransform="translate(31081 25971) scale(90 -40)" gradientUnits="userSpaceOnUse">
      <stop offset="0" stop-color="#0d47a1"/>
      <stop offset="1" stop-color="#1976d2"/>
    </linearGradient>
    <linearGradient id="linear-gradient1" x1="-344.9" y1="647.8" x2="-343.9" y2="646.8" gradientTransform="translate(31081 25951) scale(90 -40)" gradientUnits="userSpaceOnUse">
      <stop offset="0" stop-color="#1976d2"/>
      <stop offset="1" stop-color="#42a5f5"/>
    </linearGradient>
    <linearGradient id="linear-gradient2" x1="-344.9" y1="647.8" x2="-343.9" y2="646.8" gradientTransform="translate(31081 25931) scale(90 -40)" gradientUnits="userSpaceOnUse">
      <stop offset="0" stop-color="#42a5f5"/>
      <stop offset="1" stop-color="#80deea"/>
    </linearGradient>
  </defs>
  <g>
    <path class="st6" d="M81,60l45,20-45,20-45-20,45-20Z"/>
    <path class="st2" d="M81,40l45,20-45,20-45-20,45-20Z"/>
    <path class="st1" d="M81,20l45,20-45,20-45-20,45-20Z"/>
    <circle class="st0" cx="81" cy="36" r="6"/>
    <path class="st0" d="M77,39h8l2,10h-12l2-10Z"/>
  </g>
  <g class="st4">
    <text class="st3" transform="translate(156 88.8)"><tspan x="0" y="0">Omni</tspan></text>
    <text class="st5" transform="translate(357.4 88.8)"><tspan x="0" y="0">KV</tspan></text>
  </g>
</svg>